<svg id="visual" viewBox="0 0 960 540" width="960" height="540" xmlns="http://www.w3.org/2000/svg" xmlns:xlink="http://www.w3.org/1999/xlink" version="1.1"><rect x="0" y="0" width="960" height="540" fill="#002233"></rect><path d="M487 0L508.5 15C530 30 573 60 594.8 90C616.7 120 617.3 150 587.2 180C557 210 496 240 489.8 270C483.7 300 532.3 330 524.3 360C516.3 390 451.7 420 440.3 450C429 480 471 510 492 525L513 540L0 540L0 525C0 510 0 480 0 450C0 420 0 390 0 360C0 330 0 300 0 270C0 240 0 210 0 180C0 150 0 120 0 90C0 60 0 30 0 15L0 0Z" fill="#5a15cb" stroke-linecap="round" stroke-linejoin="miter"></path></svg>